<svg xmlns="http://www.w3.org/2000/svg" xmlns:xlink="http://www.w3.org/1999/xlink" style="width: 0; height: 0; visibility: hidden; position: absolute;" aria-hidden="true">
  <symbol  viewBox='0 0 50 50' id='facebook'>
    <path d="M25 50a25 25 0 1 0 0-50 25 25 0 0 0 0 50zm0-3a22 22 0 1 0 0-44 22 22 0 0 0 0 44zm1.8-11V25h3.3l.4-3.8h-3.7v-1.9c0-1 .1-1.5 1.6-1.5h2V14h-3.2c-3.9 0-5.3 1.8-5.3 5v2.2h-2.4V25h2.4v11h5zm0 0" fill-rule="evenodd"></path>
  </symbol><symbol  viewBox='0 0 50 50' id='intsagram'>
    <path d="M25 0a25 25 0 1 0 0 50 25 25 0 0 0 0-50zm0 3a22 22 0 1 0 0 44 22 22 0 0 0 0-44zm11 31.5v-19c-.2-1-1-1.8-2-2H15.8c-1 .3-1.7 1.1-1.9 2.1v19c.3 1 1 1.7 2 1.9H34c1-.3 1.7-1 1.9-2zm-19.6-1.4c0 .5.4 1 .9 1h15.4c.5 0 1-.5 1-1V22.9h-2.2a7.5 7.5 0 0 1-.7 5.8 7 7 0 0 1-2 2.2 6.6 6.6 0 0 1-7.1.3c-1.2-.6-2-1.6-2.7-2.8-1-1.7-1-3.6-.5-5.6h-2.1v10.3zm8.5-3.4c2.5 0 4.5-2 4.6-4.6 0-2.6-2-4.8-4.5-4.8-2.4 0-4.4 2-4.5 4.6 0 2.6 2 4.7 4.4 4.8zm8.7-11.2v-2.2c0-.5-.4-1-.9-1h-2a1 1 0 0 0-1 1v2.2l.1.3c.1.4.5.6.9.6h2c.5 0 1-.4 1-1zm0 0" fill-rule="evenodd"></path>
  </symbol><symbol  viewBox='0 0 50 50' id='twitter'>
    <path d="M25 50a25 25 0 1 0 0-50 25 25 0 0 0 0 50zm0-3a22 22 0 1 0 0-44 22 22 0 0 0 0 44zm-.3-26.4v.8l-.8-.1c-2.9-.4-5.4-1.7-7.5-4l-1-1-.4.8a5 5 0 0 0 1 5c.7.7.5.8-.6.3l-.7-.1c-.1 0 .3 1.6.6 2.2a5 5 0 0 0 2.1 2.2l.8.3h-1c-.8 0-.8 0-.7.4.3 1.1 1.5 2.3 3 2.8l1 .3-1 .6a8.7 8.7 0 0 1-4.2 1.2l-1.3.1c0 .2 2 1.2 3 1.5 3.5 1.1 7.5.6 10.5-1.2A14.4 14.4 0 0 0 33.9 21c0-.7 0-.8 1-1.8.4-.5 1-1 1-1.2.2-.4.2-.4-.6 0-1.4.4-1.6.4-1-.4a5 5 0 0 0 1.2-1.8s-.3 0-.5.2l-1.4.6-1 .2-.7-.5-1.3-.7c-.8-.3-2-.2-2.8 0-2 .8-3.3 2.7-3.1 4.9 0 0-.2-2.2 0 0zm0 0" fill-rule="evenodd"></path>
  </symbol><symbol  viewBox='0 0 50 50' id='youtube'>
    <path d="M50 25a25 25 0 1 0-50 0 25 25 0 0 0 50 0zm-3 0a22 22 0 1 0-44 0 22 22 0 0 0 44 0zm-10.2 5.8a3 3 0 0 1-2.7 2.4c-3 .3-6 .3-9.1.3-3 0-6.1 0-9.1-.3a3 3 0 0 1-2.7-2.4c-.4-1.9-.4-3.9-.4-5.8s0-4 .4-5.8a3 3 0 0 1 2.7-2.4c3-.3 6-.3 9.1-.3 3 0 6.1 0 9.1.3a3 3 0 0 1 2.7 2.4c.4 1.9.4 3.9.4 5.8s0 4-.4 5.8zm-14-10.3l6.8 3.9-6.8 3.9v-7.8zm0 0" fill-rule="evenodd"></path>
  </symbol></svg>